<svg width="500" height="492" viewBox="0 0 500 492" fill="none" xmlns="http://www.w3.org/2000/svg">
<g filter="url(#filter0_d)">
<g clip-path="url(#clip0)">
<path d="M405.5 322.95C393.5 322.95 382.1 327.65 373.5 336.15C364.9 344.75 360.1 355.95 360.1 367.95C360.1 379.95 364.8 391.15 373.5 399.75C382.2 408.25 393.5 412.95 405.5 412.95C430.1 412.95 450.1 392.75 450.1 367.95C450.1 343.15 430.1 322.95 405.5 322.95ZM405.5 392.95C391.7 392.95 380.1 381.55 380.1 367.95C380.1 354.35 391.7 342.95 405.5 342.95C419.1 342.95 430.1 354.15 430.1 367.95C430.1 381.75 419.1 392.95 405.5 392.95ZM417.1 173.05C415.3 171.35 412.9 170.45 410.4 170.45H359.1C353.6 170.45 349.1 174.95 349.1 180.45V262.45C349.1 267.95 353.6 272.45 359.1 272.45H440.5C446 272.45 450.5 267.95 450.5 262.45V207.55C450.5 204.75 449.3 202.05 447.2 200.15L417.1 173.05ZM430.5 252.45H369.1V190.35H406.5L430.5 211.95V252.45ZM161.3 322.95C149.3 322.95 137.9 327.65 129.3 336.15C120.7 344.75 115.9 355.95 115.9 367.95C115.9 379.95 120.6 391.15 129.3 399.75C138 408.25 149.3 412.95 161.3 412.95C185.9 412.95 205.9 392.75 205.9 367.95C205.9 343.15 185.9 322.95 161.3 322.95ZM161.3 392.95C147.5 392.95 135.9 381.55 135.9 367.95C135.9 354.35 147.5 342.95 161.3 342.95C174.9 342.95 185.9 354.15 185.9 367.95C185.9 381.75 174.9 392.95 161.3 392.95ZM94.6 335.25H74.5V308.65C74.5 303.15 70 298.65 64.5 298.65C59 298.65 54.5 303.15 54.5 308.65V345.25C54.5 350.75 59 355.25 64.5 355.25H94.6C100.1 355.25 104.6 350.75 104.6 345.25C104.6 339.75 100.1 335.25 94.6 335.25ZM145.3 280.75C145.3 275.25 140.8 270.75 135.3 270.75H14C8.5 270.75 4 275.25 4 280.75C4 286.25 8.5 290.75 14 290.75H135.3C140.8 290.75 145.3 286.35 145.3 280.75ZM34.3 244.65L155.6 245.35C161.1 245.35 165.6 240.95 165.7 235.45C165.8 229.85 161.3 225.35 155.8 225.35L34.5 224.65C34.4 224.65 34.4 224.65 34.4 224.65C28.9 224.65 24.4 229.05 24.4 234.55C24.3 240.15 28.8 244.65 34.3 244.65ZM54.7 199.25H176C181.5 199.25 186 194.75 186 189.25C186 183.75 181.5 179.25 176 179.25H54.7C49.2 179.25 44.7 183.75 44.7 189.25C44.7 194.75 49.2 199.25 54.7 199.25ZM491.4 185.75L419.8 126.45C418 124.95 415.8 124.15 413.4 124.15H329.2V88.1499C329.2 82.6499 324.7 78.1499 319.2 78.1499H64.5C59 78.1499 54.5 82.6499 54.5 88.1499V161.35C54.5 166.85 59 171.35 64.5 171.35C70 171.35 74.5 166.85 74.5 161.35V98.1499H309.3V335.25H227.3C221.8 335.25 217.3 339.75 217.3 345.25C217.3 350.75 221.8 355.25 227.3 355.25H349.4C354.9 355.25 359.4 350.75 359.4 345.25C359.4 339.75 354.9 335.25 349.4 335.25H329.3V144.15H409.9L475.1 198.15L474.4 335.05H464C458.5 335.05 454 339.55 454 345.05C454 350.55 458.5 355.05 464 355.05H484.3C489.8 355.05 494.3 350.65 494.3 345.15L495.1 193.55C495 190.55 493.7 187.65 491.4 185.75Z" fill="#4F262E"/>
</g>
</g>
<defs>
<filter id="filter0_d" x="0" y="0" width="499.1" height="499.1" filterUnits="userSpaceOnUse" color-interpolation-filters="sRGB">
<feFlood flood-opacity="0" result="BackgroundImageFix"/>
<feColorMatrix in="SourceAlpha" type="matrix" values="0 0 0 0 0 0 0 0 0 0 0 0 0 0 0 0 0 0 127 0"/>
<feOffset dy="4"/>
<feGaussianBlur stdDeviation="2"/>
<feColorMatrix type="matrix" values="0 0 0 0 0 0 0 0 0 0 0 0 0 0 0 0 0 0 0.25 0"/>
<feBlend mode="normal" in2="BackgroundImageFix" result="effect1_dropShadow"/>
<feBlend mode="normal" in="SourceGraphic" in2="effect1_dropShadow" result="shape"/>
</filter>
<clipPath id="clip0">
<rect x="4" width="491.1" height="491.1" fill="white"/>
</clipPath>
</defs>
</svg>
