<svg width="512" height="512" viewBox="0 0 512 512" fill="none" xmlns="http://www.w3.org/2000/svg">
<path d="M480 143.686H378.752C386.016 138.726 392.256 133.798 396.608 129.382C422.4 103.43 422.4 61.19 396.608 35.238C371.552 10.022 327.84 9.98997 302.752 35.238C288.896 49.158 252.064 105.83 257.152 143.686H254.848C259.904 105.83 223.104 49.158 209.248 35.238C184.16 9.98997 140.448 10.022 115.392 35.238C89.6 61.19 89.6 103.43 115.36 129.382C119.744 133.798 125.984 138.726 133.248 143.686H32C14.368 143.686 0 158.054 0 175.686V255.686C0 264.518 7.168 271.686 16 271.686H32V463.686C32 481.318 46.368 495.686 64 495.686H448C465.632 495.686 480 481.318 480 463.686V271.686H496C504.832 271.686 512 264.518 512 255.686V175.686C512 158.054 497.632 143.686 480 143.686ZM138.08 57.798C144.576 51.27 153.184 47.686 162.336 47.686C171.456 47.686 180.064 51.27 186.56 57.798C208.128 79.494 229.568 134.918 222.112 142.63C222.112 142.63 220.768 143.686 216.192 143.686C194.08 143.686 151.872 120.71 138.08 106.822C124.672 93.318 124.672 71.302 138.08 57.798ZM240 463.686H64V271.686H240V463.686ZM240 239.686H32V175.686H216.192H240V239.686ZM325.44 57.798C338.432 44.774 360.96 44.806 373.92 57.798C387.328 71.302 387.328 93.318 373.92 106.822C360.128 120.71 317.92 143.686 295.808 143.686C291.232 143.686 289.888 142.662 289.856 142.63C282.432 134.918 303.872 79.494 325.44 57.798ZM448 463.686H272V271.686H448V463.686ZM480 239.686H272V175.686H295.808H480V239.686Z" fill="#4F262E"/>
</svg>
