<svg width="236" height="294" viewBox="0 0 236 294" fill="none" xmlns="http://www.w3.org/2000/svg">
<path d="M132.711 261.915C133.314 260.227 133.193 258.499 132.429 256.931C131.224 254.56 129.455 253.756 128.169 253.515C126.159 253.153 122.823 253.595 117.919 257.615C113.016 253.635 109.679 253.153 107.67 253.515C106.384 253.756 104.575 254.56 103.409 256.931C102.605 258.499 102.525 260.227 103.128 261.915C104.012 264.448 107.027 268.346 116.231 272.567C116.512 272.687 116.834 272.768 117.156 272.768H118.683C119.005 272.768 119.326 272.687 119.607 272.567C128.812 268.346 131.826 264.448 132.711 261.915ZM128.531 260.468C127.727 262.719 123.788 265.734 118.201 268.346H117.638C112.051 265.734 108.112 262.719 107.308 260.468C107.107 259.906 107.107 259.423 107.388 258.901C107.79 258.097 108.192 257.936 108.514 257.856C110.081 257.574 113.297 259.303 116.472 262.157C117.316 262.92 118.603 262.92 119.447 262.157C122.622 259.303 125.797 257.574 127.405 257.856C127.727 257.936 128.129 258.097 128.531 258.901C128.732 259.423 128.732 259.906 128.531 260.468Z" fill="#9F4556"/>
<path d="M235.045 268.909C225.921 260.91 215.31 256.408 205.543 253.916C205.985 250.661 206.106 247.284 205.824 243.787C204.98 232.975 201.925 222.846 196.7 213.682C191.756 205.04 185.044 197.403 176.683 191.012C162.093 179.879 143.483 173.246 123.707 172.041C130.661 165.65 147.221 150.296 164.906 132.811C196.137 101.942 215.873 79.3928 223.47 65.8473C232.634 49.5686 233.237 32.0841 225.117 18.9808C217.038 5.99801 201.765 -0.87521 183.155 0.0894528C169.69 0.81295 156.265 9.69588 143.161 26.5373C130.42 42.9366 120.21 64.8023 116.231 78.4281C112.292 64.8425 102.083 42.9768 89.3009 26.5373C76.1976 9.69588 62.7727 0.772756 49.3076 0.0894528C30.6977 -0.87521 15.4238 5.99801 7.34477 18.9808C-0.774476 32.0439 -0.171558 49.5686 8.99274 65.8473C25.3116 94.8274 93.1998 157.852 108.996 172.282C90.346 173.97 72.9017 180.441 59.0748 191.012C50.7144 197.403 44.002 205 39.0581 213.682C33.8328 222.846 30.778 232.975 29.934 243.787C29.6526 247.284 29.7732 250.661 30.2153 253.916C16.1473 257.534 6.66147 263.724 0.75291 268.909C-0.171559 269.713 -0.251947 271.12 0.551939 272.044C0.994076 272.526 1.59699 272.808 2.1999 272.808C2.72243 272.808 3.24496 272.647 3.6469 272.245C12.0877 264.849 21.9755 260.669 31.0594 258.257C31.7427 261.031 32.7074 263.684 33.9534 266.256C17.7551 271.2 7.54575 279.158 1.5568 285.509C0.712716 286.393 0.752909 287.8 1.63718 288.644C2.07932 289.046 2.60185 289.247 3.16457 289.247C3.76748 289.247 4.3302 289.006 4.77234 288.564C14.0572 278.716 25.8743 273.25 36.1239 270.235C36.1641 270.276 36.1641 270.316 36.2043 270.356C40.5855 277.31 47.1773 283.138 55.2564 287.157C63.255 291.177 72.4595 293.307 81.5434 293.307C82.8699 293.307 84.1561 293.267 85.4825 293.186C96.4153 292.423 106.102 288.644 113.418 282.213C114.342 281.409 114.422 280.003 113.618 279.078C112.815 278.154 111.408 278.073 110.483 278.877C103.891 284.665 95.1291 288.082 85.1609 288.765C75.6349 289.408 65.7069 287.438 57.2259 283.218C50.1115 279.641 44.4843 274.817 40.5855 269.03C42.0726 268.668 43.4794 268.386 44.8461 268.105C57.5475 265.653 67.5156 266.296 67.6362 266.296C68.842 266.377 69.9273 265.452 70.0077 264.246C70.0881 263.041 69.1636 261.955 67.9578 261.875C67.5156 261.835 57.4269 261.192 44.1627 263.724C42.1128 264.126 40.1433 264.568 38.2542 265.05C37.0082 262.598 36.0435 259.986 35.3602 257.253C38.9777 256.489 42.4344 256.007 45.4892 255.725C58.3513 254.519 68.1587 256.087 68.3195 256.127C69.5253 256.328 70.6508 255.524 70.8518 254.318C71.0527 253.113 70.2488 251.987 69.043 251.786C68.6411 251.706 58.6327 250.098 45.1676 251.344C41.3893 251.706 37.8121 252.228 34.4759 252.912C34.1142 250.098 34.0338 247.164 34.2348 244.149C35.7621 224.253 45.248 207.09 61.6473 194.59C76.8809 182.974 96.7771 176.502 117.759 176.341C138.74 176.502 158.636 182.974 173.87 194.59C190.269 207.09 199.755 224.253 201.282 244.149C201.523 247.164 201.443 250.098 201.041 252.952C197.223 252.148 193.605 251.666 190.349 251.344C176.925 250.098 166.916 251.706 166.474 251.786C165.268 251.987 164.464 253.113 164.665 254.318C164.866 255.524 165.992 256.328 167.198 256.127C167.439 256.087 182.592 253.675 200.157 257.293C199.474 260.026 198.509 262.598 197.263 265.09C195.213 264.568 193.243 264.126 191.394 263.764C178.13 261.232 168.042 261.875 167.599 261.915C166.394 261.995 165.469 263.041 165.55 264.287C165.63 265.492 166.715 266.417 167.921 266.336C168.122 266.336 180.22 265.573 194.932 269.11C191.033 274.858 185.446 279.721 178.331 283.258C169.85 287.479 159.963 289.448 150.396 288.805C140.428 288.122 131.666 284.705 125.074 278.917C124.149 278.113 122.743 278.194 121.939 279.118C121.135 280.043 121.215 281.45 122.14 282.253C129.455 288.685 139.142 292.463 150.075 293.226C151.361 293.307 152.687 293.347 154.014 293.347C163.098 293.347 172.302 291.217 180.301 287.197C188.38 283.138 194.972 277.35 199.353 270.396C199.393 270.356 199.393 270.316 199.433 270.316C210.125 273.451 221.701 278.957 230.785 288.604C231.227 289.046 231.79 289.287 232.393 289.287C232.955 289.287 233.478 289.086 233.92 288.685C234.804 287.84 234.844 286.434 234 285.549C224.354 275.34 212.255 269.552 201.604 266.296C202.85 263.724 203.814 261.071 204.498 258.298C213.863 260.709 223.59 264.97 231.91 272.245C232.312 272.607 232.835 272.808 233.357 272.808C233.96 272.808 234.603 272.567 235.005 272.044C236.05 271.079 235.97 269.713 235.045 268.909ZM115.186 171.92C114.342 171.156 30.6173 95.2293 12.8916 63.6768C8.5908 56.0399 6.29972 48.2824 6.09875 40.7259C5.93798 33.6517 7.66633 26.9392 11.123 21.312C18.3178 9.73608 32.1447 3.62655 49.1067 4.51083C64.1795 5.31471 77.4034 18.418 85.8442 29.2705C104.575 53.3871 114.463 83.8142 113.538 88.5169C113.297 89.7227 114.061 90.8884 115.266 91.1295C115.588 91.2099 115.91 91.1697 116.231 91.0893C116.553 91.1697 116.874 91.1697 117.196 91.1295C118.402 90.8884 119.165 89.7227 118.924 88.5169C118 83.8544 127.887 53.4273 146.618 29.2705C155.059 18.418 168.283 5.31471 183.356 4.51083C200.318 3.62655 214.144 9.73608 221.339 21.312C224.836 26.899 226.564 33.6115 226.363 40.7259C226.163 48.3226 223.871 56.0399 219.571 63.6768C202.086 94.8676 120.009 169.468 117.357 171.88C117.276 171.88 117.196 171.88 117.115 171.88C117.035 171.88 116.955 171.88 116.834 171.88C116.312 171.88 115.749 171.92 115.186 171.92Z" fill="#9F4556"/>
<path d="M84.9197 208.417C79.4935 208.417 74.3084 213.159 74.5496 218.787C74.7908 224.414 79.0916 229.157 84.9197 229.157C90.346 229.157 95.531 224.414 95.2899 218.787C95.0085 213.159 90.7077 208.417 84.9197 208.417Z" fill="#9F4556"/>
<path d="M150.919 228.433C156.345 228.433 161.53 223.69 161.289 218.063C161.048 212.436 156.747 207.693 150.919 207.693C145.493 207.693 140.307 212.436 140.549 218.063C140.79 223.69 145.091 228.433 150.919 228.433Z" fill="#9F4556"/>
</svg>
