<svg width="391" height="391" viewBox="0 0 391 391" fill="none" xmlns="http://www.w3.org/2000/svg">
<path d="M351.036 63.3129L201.357 1.16756C197.607 -0.388804 193.392 -0.389568 189.643 1.16756L39.9637 63.3129C34.2629 65.6803 30.5469 71.2459 30.5469 77.4187V152.965C30.5469 256.987 93.4192 350.557 189.728 389.867C193.427 391.377 197.572 391.377 201.272 389.867C297.579 350.558 360.453 256.988 360.453 152.965V77.4187C360.453 71.2459 356.738 65.6803 351.036 63.3129V63.3129ZM329.906 152.965C329.906 241.394 277.977 322.799 195.5 359.136C115.227 323.77 61.0938 243.791 61.0938 152.965V87.6152L195.5 31.8107L329.906 87.6152V152.965ZM178.618 204.447L244.267 138.8C250.231 132.835 259.901 132.835 265.866 138.8C271.831 144.765 271.831 154.435 265.865 160.399L189.418 236.847C183.452 242.812 173.782 242.81 167.818 236.847L125.134 194.162C119.169 188.197 119.169 178.527 125.134 172.562C131.099 166.598 140.769 166.597 146.733 172.562L178.618 204.447Z" fill="#4F262E"/>
</svg>
